<svg data-v-0dd9719b="" version="1.0" xmlns="http://www.w3.org/2000/svg" xmlns:xlink="http://www.w3.org/1999/xlink" width="100%" height="100%" viewBox="0 0 340.000000 250.000000" preserveAspectRatio="xMidYMid meet" color-interpolation-filters="sRGB" style="margin: auto;"> <rect data-v-0dd9719b="" x="0" y="0" width="100%" height="100%" fill="#fff" fill-opacity="1" class="background"></rect> <rect data-v-0dd9719b="" x="0" y="0" width="100%" height="100%" fill="url(#watermark)" fill-opacity="1" class="watermarklayer"></rect> <g data-v-0dd9719b="" fill="#333" class="icon-text-wrapper icon-svg-group iconsvg" transform="translate(48.36499786376953,94.99699974060059)"><g class="iconsvg-imagesvg" transform="translate(0,0)"><g><rect fill="#333" fill-opacity="0" stroke-width="2" x="0" y="0" width="60" height="60.006000600060005" class="image-rect"></rect> <svg x="0" y="0" width="60" height="60.006000600060005" filtersec="colorsb4430886823" class="image-svg-svg primary" style="overflow: visible;"><svg xmlns="http://www.w3.org/2000/svg" viewBox="0.01964184083044529 -0.03000464104115963 99.9903564453125 100.00001525878906"><path d="M75.74 61.83H62.5a17.53 17.53 0 0 1-26.75-1.37 2.57 2.57 0 0 0 .3-1.17 2.53 2.53 0 1 0-2.53 2.53 2.73 2.73 0 0 0 .5 0A19.68 19.68 0 0 0 63.41 64h9.45a26.79 26.79 0 1 1 0-28h-9.1a19.69 19.69 0 0 0-30.19 2.5 2.53 2.53 0 1 0 2.48 2.5 2.47 2.47 0 0 0-.53-1.53 17.53 17.53 0 0 1 27.29-1.33H98.6a50 50 0 1 0 0 23.66zm-43.45-2.54a1.23 1.23 0 1 1 1.23 1.23 1.24 1.24 0 0 1-1.23-1.23zM34.75 41a1.23 1.23 0 1 1-1.23-1.23A1.23 1.23 0 0 1 34.75 41zM83.6 73.42a3.7 3.7 0 0 1-.95-.14 40 40 0 1 1 0-46.56 3.7 3.7 0 0 1 .95-.14 3.86 3.86 0 1 1-3.27 1.86 37.14 37.14 0 1 0 0 43.12 3.83 3.83 0 1 1 3.27 1.86z" fill="#0080df"></path><path d="M99.87 46.27H58.16a9 9 0 1 0 0 7.46h41.71c.09-1.23.14-2.47.14-3.73s-.01-2.5-.14-3.73zM50 53.73A3.73 3.73 0 1 1 53.73 50 3.73 3.73 0 0 1 50 53.73z" fill="#f6911e"></path><path d="M81.74 30.42a1.87 1.87 0 1 0 1.86-1.87 1.87 1.87 0 0 0-1.86 1.87zM83.6 67.71a1.87 1.87 0 1 0 1.87 1.87 1.87 1.87 0 0 0-1.87-1.87z" fill="#0080df"></path></svg></svg> <!----></g></g> <g transform="translate(67,6.006750106811523)"><g data-gra="path-name" fill-rule="" class="tp-name iconsvg-namesvg" transform="translate(0,0)"><g transform="scale(1)"><g><path d="M19.23-27.49L33.26-27.49 33.26-25.52 2.71-25.52 2.71-27.49 16.63-27.49 16.63-30.13 19.23-30.13 19.23-27.49ZM22.04-10.65L13.75-10.65 13.75-8.68 22.04-8.68 22.04-10.65ZM22.04-14.31L13.75-14.31 13.75-12.41 22.04-12.41 22.04-14.31ZM13.78-22.29L7.84-22.29 7.84-19.37 13.78-19.37 13.78-22.29ZM28.05-22.29L22.08-22.29 22.08-19.37 28.05-19.37 28.05-22.29ZM17.86-6.68L17.86-6.68 17.75-6.68Q15.96-5.48 12.38-3.97L12.38-3.97 12.38-0.32 21.2-1.37 21.3 0.63Q19.09 0.91 14.66 1.48L14.66 1.48Q8.33 2.32 5.91 2.6L5.91 2.6 5.63 0.42Q6.26 0.35 7.7 0.21L7.7 0.21Q9.14 0.04 9.91-0.04L9.91-0.04 9.91-3.02Q6.26-1.83 2.74-1.16L2.74-1.16Q1.93-2.39 1.34-2.92L1.34-2.92Q8.33-4.01 13.78-6.61L13.78-6.61Q13.89-6.64 13.96-6.68L13.96-6.68 2.04-6.68 2.04-8.68 11.21-8.68 11.21-10.65 4.64-10.65 4.64-12.41 11.21-12.41 11.21-14.31 3.52-14.31 3.52-16.14 11.21-16.14 11.21-17.68 5.52-17.68 5.52-23.94 16.24-23.94 16.24-17.68 13.75-17.68 13.75-16.14 22.04-16.14 22.04-17.68 19.69-17.68 19.69-23.94 30.48-23.94 30.48-17.68 24.61-17.68 24.61-16.14 32.48-16.14 32.48-14.31 24.61-14.31 24.61-12.41 31.29-12.41 31.29-10.65 24.61-10.65 24.61-8.68 33.93-8.68 33.93-6.68 20.43-6.68Q21.87-4.71 24.08-3.13L24.08-3.13Q27.46-4.54 29.85-6.12L29.85-6.12 31.57-4.68Q29.21-3.23 25.95-1.97L25.95-1.97Q29.64-0.04 34.63 0.7L34.63 0.7Q33.71 1.62 33.08 2.88L33.08 2.88Q22.25 0.7 17.86-6.68ZM48.48-28.65L48.94-28.76 50.73-27.6Q48.48-22.71 46.13-18.42L46.13-18.42Q50.34-14.7 50.34-10.65L50.34-10.65Q50.31-7.56 48.66-6.43L48.66-6.43Q47.81-5.91 46.48-5.73L46.48-5.73Q45.07-5.59 43.38-5.7L43.38-5.7Q43.31-7 42.64-8.12L42.64-8.12Q44.09-7.98 45.42-8.05L45.42-8.05Q46.34-8.12 46.9-8.47L46.9-8.47Q47.85-9.07 47.85-10.9L47.85-10.9Q47.74-14.55 43.52-18.14L43.52-18.14Q45.35-21.52 47.29-26.19L47.29-26.19 41.73-26.19 41.73 2.71 39.23 2.71 39.23-28.65 48.48-28.65ZM55.27-13.25L55.27-2.78 65.92-2.78 65.92-13.25 55.27-13.25ZM65.92-15.71L65.92-25.42 55.27-25.42 55.27-15.71 65.92-15.71ZM52.66 2.46L52.66-27.95 68.55-27.95 68.55 2.18 65.92 2.18 65.92-0.28 55.27-0.28 55.27 2.46 52.66 2.46ZM102.09-29.64L102.09-29.64 102.97-27.46Q93.62-25.91 77.94-25.66L77.94-25.66Q77.24-25.63 76.57-25.63L76.57-25.63Q76.43-26.68 76.04-27.77L76.04-27.77Q91.58-28.09 101.14-29.5L101.14-29.5Q101.67-29.57 102.09-29.64ZM102.69-19.05L77.38-19.05 77.38-15.33 75.09-15.33 75.09-21.34 81.35-21.34Q81.28-21.59 81.19-21.81 81.11-22.04 81-22.36 80.89-22.68 80.82-22.85 80.75-23.03 80.61-23.41 80.47-23.8 80.44-23.89 80.4-23.98 80.23-24.43L80.23-24.43 80.05-24.89 82.05-25.63Q83.32-22.78 83.74-21.34L83.74-21.34 89.47-21.34Q89.23-22.25 88.24-25.21L88.24-25.21 90.25-25.84Q91.27-23.52 91.86-21.34L91.86-21.34 95.59-21.34Q97.21-23.73 98.37-26.44L98.37-26.44 100.72-25.63Q99.46-23.48 98.02-21.34L98.02-21.34 105.05-21.34 105.05-15.33 102.69-15.33 102.69-19.05ZM97.38-7.49L97.38-7.49 86.63-7.49Q88.91-5.2 92.43-3.48L92.43-3.48Q95.55-5.31 97.38-7.49ZM99.14-9.81L99.56-9.91 101.04-8.86Q99-5.1 94.96-2.46L94.96-2.46Q99.6-0.74 105.33-0.07L105.33-0.07Q104.63 0.74 103.89 2.29L103.89 2.29Q97.59 1.44 92.39-0.98L92.39-0.98Q88 1.2 82.44 2.21L82.44 2.21Q82.13 1.13 81.28 0.14L81.28 0.14Q81.25 0.07 81.21 0.04L81.21 0.04Q85.99-0.74 89.86-2.32L89.86-2.32Q86.41-4.39 84.2-7L84.2-7Q81.11-0.95 75.3 2.43L75.3 2.43Q74.53 1.2 73.65 0.35L73.65 0.35Q81.04-3.62 83.88-12.66L83.88-12.66 77.7-12.66 77.7-14.98 84.52-14.98Q85.01-17.02 85.18-18.11L85.18-18.11 87.71-17.79Q87.54-16.77 87.12-14.98L87.12-14.98 102.38-14.98 102.38-12.66 86.48-12.66Q86.27-11.85 85.5-9.81L85.5-9.81 99.14-9.81ZM137.18-28.3L137.18-28.3 140.06-27.14Q137.04-21.83 134.23-18.25L134.23-18.25 131.94-19.3Q134.72-22.99 136.93-27.74L136.93-27.74Q137.07-28.05 137.18-28.3ZM119.81-19.69L119.81-19.69 117.21-18.53Q115.98-21.87 113.06-25.98L113.06-25.98Q112.68-26.51 112.32-26.96L112.32-26.96 114.71-27.98Q118.13-23.66 119.64-20.14L119.64-20.14Q119.74-19.9 119.81-19.69ZM141.71-16.31L141.71-13.68 129.48-13.68Q132.93-8.44 138.38-4.29L138.38-4.29Q140.59-2.6 142.66-1.51L142.66-1.51Q141.57-0.6 140.66 0.81L140.66 0.81Q135.18-2.5 130.32-8.37L130.32-8.37Q128.64-10.44 127.34-12.48L127.34-12.48 127.34 2.78 124.56 2.78 124.56-12.38Q120.69-6.05 114.75-1.3L114.75-1.3Q113.03 0.11 111.34 1.13L111.34 1.13Q110.71 0.18 109.44-1.13L109.44-1.13Q114.61-3.94 119.14-9.21L119.14-9.21Q121.08-11.46 122.45-13.68L122.45-13.68 110.21-13.68 110.21-16.31 124.56-16.31 124.56-30.06 127.34-30.06 127.34-16.31 141.71-16.31ZM168.47-24.86L168.47-24.86 158.17-24.86Q156.9-23.91 155.92-23.31L155.92-23.31Q160.1-21.16 162.28-19.27L162.28-19.27Q166.15-21.83 168.47-24.86ZM170.16-27.11L170.65-27.25 172.34-26.16Q168.26-18.77 158.03-14.13L158.03-14.13Q153.14-11.92 147.73-10.76L147.73-10.76Q147.2-12.27 146.46-13.11L146.46-13.11Q153.88-14.52 160-17.89L160-17.89Q157.71-19.83 153.67-21.97L153.67-21.97Q151.59-20.85 148.57-19.55L148.57-19.55Q147.9-20.64 146.74-21.52L146.74-21.52Q154.62-24.33 159.29-29L159.29-29Q159.89-29.6 160.35-30.16L160.35-30.16 163.34-29.53Q162.49-28.55 160.95-27.11L160.95-27.11 170.16-27.11ZM173.92-12.3L173.92-12.3 163.58-12.3Q161.72-10.97 160.45-10.27L160.45-10.27Q164.81-7.84 167.31-5.55L167.31-5.55Q171.67-8.44 173.92-12.3ZM175.39-14.63L175.89-14.73 177.61-13.75Q171.77-0.32 150.33 2.81L150.33 2.81Q149.87 1.41 149.13 0.39L149.13 0.39Q158.41-0.74 164.92-4.15L164.92-4.15Q162.14-6.75 157.99-8.96L157.99-8.96Q155.29-7.59 152.02-6.43L152.02-6.43Q151.17-7.73 150.36-8.47L150.36-8.47Q159.33-11.32 164.57-16.28L164.57-16.28Q165.48-17.16 166.15-17.96L166.15-17.96 169.1-17.3Q167.73-15.79 166.46-14.63L166.46-14.63 175.39-14.63Z" transform="translate(-1.340000033378601, 30.15999984741211)"></path></g> <!----> <!----> <!----> <!----> <!----> <!----> <!----></g></g> <g data-gra="path-slogan" fill-rule="" class="tp-slogan iconsvg-slogansvg" fill="#333" transform="translate(5,39.040000915527344)"><rect x="0" height="1" y="3.9750003814697266" width="17.695003509521484"></rect> <rect height="1" y="3.9750003814697266" width="17.695003509521484" x="148.57500076293945"></rect> <g transform="translate(20.695003509521484,0)"><g transform="scale(1)"><path d="M7.64-8.58L4.73-4.41L7.78 0L6.33 0L3.98-3.52L1.64 0L0.23 0L3.33-4.41L0.42-8.58L1.88-8.58L4.03-5.30L6.23-8.58L7.64-8.58ZM9.05-8.58L10.22-8.58L10.22 0L9.05 0L9.05-8.58ZM17.86 0L17.02-2.48L13.55-2.48L12.66 0L11.48 0L14.72-8.58L16.03-8.58L19.13 0L17.86 0ZM15.28-7.31L13.92-3.52L16.59-3.52L15.33-7.31L15.28-7.31ZM21.56-8.58L25.88-1.64L25.88-8.58L27-8.58L27 0L25.69 0L21.33-6.94L21.28-6.94L21.28 0L20.16 0L20.16-8.58L21.56-8.58ZM35.20-3.61L32.58-3.61L32.58-4.59L36.33-4.59L36.33 0L35.58 0L35.30-1.08Q34.31 0.09 32.48 0.14L32.48 0.14Q30.75 0.14 29.81-0.75L29.81-0.75Q28.41-2.06 28.45-4.36L28.45-4.36Q28.78-8.63 32.53-8.81L32.53-8.81Q35.72-8.63 36.19-6L36.19-6L35.06-6Q34.59-7.78 32.48-7.83L32.48-7.83Q29.81-7.64 29.67-4.31L29.67-4.31Q29.67-0.75 32.53-0.75L32.53-0.75Q33.56-0.75 34.31-1.31L34.31-1.31Q35.25-2.06 35.20-3.61L35.20-3.61ZM45.05-8.58L41.81-3.47L41.81 0L40.64 0L40.64-3.47L37.41-8.58L38.77-8.58L41.20-4.45L43.69-8.58L45.05-8.58ZM51.75 0L50.91-2.48L47.44-2.48L46.55 0L45.38 0L48.61-8.58L49.92-8.58L53.02 0L51.75 0ZM49.17-7.31L47.81-3.52L50.48-3.52L49.22-7.31L49.17-7.31ZM55.45-8.58L59.77-1.64L59.77-8.58L60.89-8.58L60.89 0L59.58 0L55.22-6.94L55.17-6.94L55.17 0L54.05 0L54.05-8.58L55.45-8.58ZM69.09-3.61L66.47-3.61L66.47-4.59L70.22-4.59L70.22 0L69.47 0L69.19-1.08Q68.20 0.09 66.38 0.14L66.38 0.14Q64.64 0.14 63.70-0.75L63.70-0.75Q62.30-2.06 62.34-4.36L62.34-4.36Q62.67-8.63 66.42-8.81L66.42-8.81Q69.61-8.63 70.08-6L70.08-6L68.95-6Q68.48-7.78 66.38-7.83L66.38-7.83Q63.70-7.64 63.56-4.31L63.56-4.31Q63.56-0.75 66.42-0.75L66.42-0.75Q67.45-0.75 68.20-1.31L68.20-1.31Q69.14-2.06 69.09-3.61L69.09-3.61ZM81 0L80.16-2.48L76.69-2.48L75.80 0L74.63 0L77.86-8.58L79.17-8.58L82.27 0L81 0ZM78.42-7.31L77.06-3.52L79.73-3.52L78.47-7.31L78.42-7.31ZM83.48-8.58L84.66-8.58L84.66 0L83.48 0L83.48-8.58ZM94.88-8.58L94.88 0L93.75 0L93.75-5.06Q93.75-5.77 93.75-7.22L93.75-7.22L91.31 0L90.14 0L87.75-7.22L87.70-7.22Q87.70-6.70 87.75-5.67L87.75-5.67Q87.75-5.16 87.75-5.06L87.75-5.06L87.75 0L86.58 0L86.58-8.58L88.27-8.58L90.75-1.31L93.19-8.58L94.88-8.58ZM96.75-8.58L97.92-8.58L97.92 0L96.75 0L96.75-8.58ZM103.41 0L99.94 0L99.94-8.58L103.45-8.58Q106.92-8.39 107.06-4.41L107.06-4.41Q106.88-0.09 103.41 0L103.41 0ZM103.27-7.64L101.11-7.64L101.11-0.98L103.36-0.98Q105.80-1.13 105.89-4.31L105.89-4.31Q105.84-7.55 103.27-7.64L103.27-7.64ZM114.19-3.19L114.19-8.58L115.36-8.58L115.36-3.05Q115.22 0.05 111.84 0.14L111.84 0.14Q108.70 0.05 108.56-2.86L108.56-2.86L108.56-8.58L109.73-8.58L109.73-3.19Q109.78-0.84 111.89-0.80L111.89-0.80Q114.19-0.84 114.19-3.19L114.19-3.19ZM123.94-4.27L123.94-4.27Q123.75-7.64 120.94-7.83L120.94-7.83Q118.08-7.69 117.94-4.27L117.94-4.27Q118.08-0.94 120.94-0.80L120.94-0.80Q123.75-0.98 123.94-4.27ZM125.11-4.27L125.11-4.27Q124.83 0 120.94 0.14L120.94 0.14Q117 0 116.72-4.27L116.72-4.27Q116.95-8.72 120.94-8.81L120.94-8.81Q124.83-8.67 125.11-4.27Z" transform="translate(-0.234375, 8.8125)"></path></g></g></g></g></g><defs v-gra="od"></defs></svg>